<svg width="23" height="23" viewBox="0 0 23 23" fill="none" xmlns="http://www.w3.org/2000/svg">
<path d="M21.48 14.1409L8.85909 1.51998C7.87894 0.539826 6.57571 0 5.18951 0C3.80336 0 2.50013 0.539826 1.51998 1.51998C0.539826 2.50013 0 3.80336 0 5.18951C0 6.57571 0.539826 7.87889 1.51998 8.85909L14.1409 21.48C15.1211 22.4602 16.4243 23 17.8105 23C19.1966 23 20.4999 22.4602 21.4801 21.48C22.4602 20.4999 23 19.1966 23 17.8105C23 16.4243 22.4602 15.1211 21.48 14.1409Z" fill="#FFD2C0"/>
<path d="M12.0534 19.3685L19.3687 12.0532L12.506 5.19062L5.1908 12.5059L12.0534 19.3685Z" fill="#EAA28F"/>
<path d="M8.24822 5.55547C8.23263 5.57106 8.21547 5.58503 8.19705 5.5977C8.17895 5.60947 8.15927 5.62029 8.13892 5.62851C8.11862 5.63678 8.09733 5.64343 8.07603 5.6476C8.05443 5.65205 8.03187 5.65425 8.01027 5.65425C7.98803 5.6543 7.96611 5.65205 7.94419 5.64792C7.92258 5.64343 7.90165 5.63714 7.88098 5.62851C7.86095 5.61993 7.84127 5.60978 7.82317 5.59738C7.80475 5.58534 7.78728 5.57106 7.77169 5.55547C7.7561 5.53988 7.74213 5.52272 7.73009 5.5043C7.71769 5.4862 7.70749 5.46652 7.69864 5.44617C7.69038 5.42587 7.68404 5.40489 7.67955 5.38328C7.67542 5.36136 7.67317 5.33944 7.67322 5.3172C7.67317 5.2956 7.67542 5.27305 7.67987 5.25144C7.684 5.23015 7.69065 5.20885 7.69896 5.18855C7.70722 5.1682 7.71801 5.14852 7.72978 5.13037C7.75426 5.09322 7.78602 5.06146 7.82317 5.03703C7.84127 5.0253 7.86099 5.01448 7.88134 5.00621C7.90165 4.99794 7.92294 4.9913 7.94423 4.98712C7.96584 4.98267 7.98839 4.98042 8.01 4.98047C8.03223 4.98042 8.05416 4.98267 8.07608 4.9868C8.09769 4.99125 8.11862 4.99758 8.13897 5.0059C8.15932 5.01474 8.17899 5.02494 8.1971 5.03734C8.21552 5.04938 8.23268 5.06335 8.24826 5.07894C8.26385 5.09453 8.27814 5.11196 8.29018 5.13042C8.30257 5.14852 8.31277 5.1682 8.32131 5.18823C8.32989 5.20885 8.33622 5.22983 8.34071 5.25144C8.34485 5.27336 8.34705 5.29528 8.34705 5.31752C8.34705 5.33913 8.34485 5.36168 8.3404 5.38328C8.33622 5.40458 8.32962 5.42583 8.32131 5.44617C8.31304 5.46652 8.30221 5.48625 8.29049 5.5043C8.27778 5.52277 8.26381 5.53988 8.24822 5.55547Z" fill="#EAA28F"/>
<path d="M6.90201 6.9021C6.88643 6.91769 6.86927 6.93166 6.85085 6.94433C6.83275 6.9561 6.81307 6.96693 6.79272 6.97515C6.77241 6.98341 6.75112 6.99006 6.72983 6.99424C6.70822 6.99869 6.68567 7.00089 6.66406 7.00089C6.64183 7.00093 6.61991 6.99868 6.59798 6.99455C6.57638 6.99006 6.5554 6.98377 6.53478 6.97519C6.51479 6.96661 6.49511 6.95641 6.47696 6.94406C6.45855 6.93198 6.44112 6.91769 6.42553 6.9021C6.36295 6.83953 6.32701 6.75278 6.32706 6.66388C6.3267 6.64196 6.32926 6.61972 6.33371 6.59812C6.33784 6.57682 6.34449 6.55553 6.3528 6.53523C6.36107 6.51488 6.37185 6.4952 6.38362 6.47705C6.44556 6.38402 6.55324 6.32715 6.66379 6.32715C6.75274 6.3271 6.83944 6.36304 6.90201 6.42562C6.9176 6.44121 6.93189 6.45863 6.94393 6.4771C6.95632 6.4952 6.96648 6.51492 6.97506 6.53491C6.98364 6.55553 6.98997 6.57651 6.9941 6.59843C6.99855 6.62004 7.00075 6.64196 7.00075 6.66415C7.00084 6.75251 6.96459 6.83953 6.90201 6.9021Z" fill="#EAA28F"/>
<path d="M5.55594 8.24783C5.54035 8.26342 5.52319 8.27739 5.50478 8.29006C5.48636 8.30214 5.46704 8.31261 5.44669 8.32088C5.42639 8.32914 5.40505 8.33583 5.3838 8.33997C5.36188 8.34473 5.33964 8.34662 5.31799 8.34662C5.2958 8.34662 5.27388 8.34437 5.25196 8.34028C5.23035 8.33583 5.20905 8.32914 5.18875 8.32092C5.16876 8.31234 5.14904 8.30219 5.13094 8.28979C5.1122 8.27739 5.09509 8.26342 5.0795 8.24783C5.06391 8.23225 5.04994 8.21508 5.03786 8.19671C5.02546 8.17861 5.01531 8.15889 5.00673 8.1389C4.99815 8.11823 4.99181 8.0973 4.98737 8.07569C4.98323 8.05377 4.98099 8.03185 4.98099 8.00966C4.98067 7.98769 4.98292 7.96581 4.98768 7.94385C4.99181 7.9226 4.99846 7.90131 5.00677 7.88096C5.01504 7.86061 5.0255 7.84124 5.03754 7.82283C5.06234 7.78599 5.0941 7.75419 5.13062 7.72975C5.14904 7.71771 5.16845 7.7072 5.18911 7.69862C5.20941 7.69035 5.23071 7.6837 5.252 7.67953C5.27361 7.67512 5.29584 7.67256 5.31777 7.67288C5.33996 7.67288 5.36192 7.67508 5.3838 7.67926C5.40541 7.6837 5.42634 7.69004 5.44669 7.69893C5.467 7.7072 5.48672 7.71735 5.50482 7.72975C5.52324 7.74183 5.5404 7.75576 5.55599 7.77135C5.61888 7.83424 5.65477 7.92098 5.65477 8.00988C5.65477 8.03149 5.65252 8.05404 5.64812 8.07565C5.64394 8.09694 5.63729 8.11823 5.62903 8.13854C5.62045 8.1592 5.60994 8.17856 5.5979 8.19698C5.5855 8.21517 5.57148 8.23229 5.55594 8.24783Z" fill="#EAA28F"/>
<path d="M6.48363 5.13744C6.46809 5.15298 6.45093 5.16695 6.43282 5.17939C6.4144 5.19143 6.39468 5.20226 6.37433 5.21052C6.35403 5.21879 6.33274 5.22544 6.31149 5.22957C6.28921 5.23402 6.26733 5.23626 6.24541 5.23595C6.22349 5.23626 6.20157 5.23406 6.17937 5.22957C6.15808 5.22544 6.13683 5.21879 6.11648 5.21052C6.09649 5.20194 6.07646 5.19148 6.05867 5.17939C6.03998 5.16699 6.02278 5.15307 6.00719 5.13748C5.9916 5.12189 5.97768 5.10473 5.96559 5.08631C5.95319 5.06821 5.94304 5.04849 5.93415 5.02819C5.92588 5.00784 5.91955 4.9869 5.9151 4.9653C5.91092 4.94337 5.90845 4.92114 5.90872 4.89926C5.90841 4.87734 5.91061 4.85542 5.91541 4.83349C5.9195 4.8122 5.92588 4.79059 5.93442 4.7706C5.94268 4.7503 5.95319 4.73026 5.96555 4.71216C5.98967 4.67532 6.02143 4.64357 6.05862 4.61908C6.07641 4.607 6.0964 4.59658 6.11671 4.58827C6.1367 4.57969 6.15835 4.57331 6.1796 4.56922C6.20121 4.56477 6.22344 4.56226 6.24536 4.56253C6.26729 4.56221 6.28948 4.56477 6.3114 4.5689C6.33301 4.57335 6.35394 4.57969 6.37397 4.58831C6.39464 4.59689 6.41436 4.60704 6.43246 4.61944C6.45088 4.63153 6.468 4.6455 6.48358 4.66108C6.49917 4.67667 6.51314 4.69383 6.52554 4.71252C6.53763 4.73031 6.54809 4.75034 6.55636 4.77069C6.56494 4.79068 6.57163 4.81193 6.57576 4.83327C6.58021 4.85551 6.58241 4.87743 6.58214 4.89931C6.58241 4.9878 6.54625 5.07481 6.48363 5.13744Z" fill="#EAA28F"/>
<path d="M5.13741 6.48363C5.12182 6.49922 5.1047 6.51314 5.08597 6.52559C5.06782 6.53794 5.04815 6.54814 5.02811 6.55672C5.00781 6.56498 4.98651 6.57163 4.96522 6.57581C4.9433 6.58057 4.92106 6.58246 4.8995 6.58246C4.87726 6.58241 4.85534 6.58021 4.83338 6.57608C4.81177 6.57163 4.79052 6.56498 4.77017 6.55672C4.75018 6.54814 4.73046 6.53798 4.71236 6.52559C4.69362 6.51323 4.67646 6.49926 4.66088 6.48367C4.5983 6.4211 4.56209 6.33404 4.56241 6.24545C4.56209 6.22353 4.56429 6.20161 4.56874 6.17937C4.57287 6.15808 4.57957 6.13679 4.58815 6.1168C4.59641 6.09649 4.60657 6.07677 4.61896 6.05867C4.6434 6.02152 4.67516 5.98976 4.71204 5.96559C4.73015 5.95319 4.75018 5.94272 4.77049 5.93446C4.79048 5.92588 4.81177 5.91923 4.83306 5.91505C4.85498 5.91092 4.87722 5.9084 4.89914 5.90872C4.98777 5.90836 5.07479 5.94461 5.13736 6.00719C5.15295 6.02277 5.16692 6.03994 5.17932 6.05862C5.19172 6.07677 5.20187 6.09645 5.21045 6.11644C5.21872 6.13679 5.22532 6.15808 5.22981 6.17964C5.23394 6.20156 5.23619 6.22349 5.23619 6.24572C5.23619 6.26733 5.23394 6.28984 5.22954 6.31144C5.22541 6.33274 5.21876 6.35398 5.21045 6.37433C5.20187 6.39437 5.1914 6.41436 5.17901 6.43251C5.16697 6.45088 5.153 6.46804 5.13741 6.48363Z" fill="#EAA28F"/>
<path d="M6.06535 3.37284C6.04976 3.38843 6.0326 3.40236 6.01387 3.41476C5.99576 3.42653 5.97604 3.43731 5.95574 3.44557C5.9357 3.45415 5.91414 3.46049 5.89285 3.46462C5.87124 3.46907 5.849 3.47158 5.82713 3.47127C5.80521 3.47163 5.78297 3.46902 5.76105 3.46489C5.7398 3.46076 5.71851 3.45411 5.69816 3.4458C5.67781 3.4369 5.65813 3.42675 5.64007 3.41435C5.62161 3.40227 5.60445 3.3883 5.58891 3.37275C5.57332 3.35717 5.55935 3.34001 5.54695 3.32127C5.53455 3.30317 5.52435 3.28349 5.51582 3.2635C5.50755 3.2432 5.50086 3.22186 5.49641 3.2003C5.49233 3.17838 5.49003 3.15646 5.49039 3.13453C5.49008 3.11266 5.49228 3.09011 5.49677 3.0685C5.5009 3.0472 5.50755 3.02596 5.51582 3.00561C5.52408 2.9853 5.53487 2.96558 5.54664 2.94748C5.57139 2.91064 5.60315 2.87884 5.63998 2.85413C5.65809 2.84236 5.67781 2.83158 5.69811 2.82331C5.71846 2.81505 5.73971 2.8084 5.761 2.80427C5.78261 2.79982 5.80516 2.79762 5.82704 2.79789C5.84896 2.79753 5.87088 2.79982 5.8928 2.80391C5.91441 2.80836 5.9357 2.81505 5.95601 2.82331C5.976 2.83185 5.99572 2.84205 6.01378 2.85445C6.03255 2.86684 6.04971 2.88081 6.06526 2.8964C6.0808 2.91195 6.09477 2.92911 6.10686 2.94757C6.11921 2.96567 6.12941 2.9853 6.13826 3.00565C6.14652 3.02596 6.15322 3.0473 6.15735 3.06854C6.16148 3.09046 6.16404 3.1127 6.16373 3.13462C6.16404 3.15654 6.16153 3.17878 6.15708 3.20034C6.15295 3.22164 6.14661 3.2432 6.13803 3.26323C6.12977 3.28354 6.11894 3.3033 6.10722 3.32136C6.09486 3.3401 6.08094 3.35726 6.06535 3.37284Z" fill="#EAA28F"/>
<path d="M4.71911 4.71882C4.70353 4.73441 4.68637 4.74834 4.66763 4.76074C4.64984 4.77282 4.62981 4.78329 4.6095 4.79155C4.58947 4.80013 4.56791 4.80647 4.54657 4.8106C4.52496 4.81505 4.50273 4.81756 4.48085 4.81729C4.45893 4.81765 4.43669 4.81505 4.41472 4.81091C4.39316 4.80647 4.37218 4.80013 4.35183 4.79187C4.33153 4.78297 4.31185 4.77278 4.29375 4.76042C4.27533 4.74834 4.25817 4.73432 4.24263 4.71878C4.22704 4.70319 4.21307 4.68603 4.20067 4.6673C4.18832 4.6492 4.17812 4.62947 4.16954 4.60953C4.16127 4.58918 4.15463 4.56789 4.15013 4.54628C4.14605 4.5244 4.14375 4.50244 4.1438 4.4802C4.1438 4.45859 4.146 4.43604 4.15045 4.41448C4.15458 4.39319 4.16123 4.37194 4.16949 4.35159C4.17776 4.33128 4.18854 4.31156 4.20031 4.29346C4.26221 4.20038 4.36989 4.14355 4.48044 4.14355C4.50264 4.14355 4.5246 4.1458 4.54616 4.1502C4.56809 4.15434 4.58942 4.16098 4.60973 4.16929C4.62972 4.17787 4.64944 4.18803 4.6675 4.20043C4.68628 4.21278 4.70344 4.22679 4.71898 4.24238C4.78156 4.30496 4.81745 4.39166 4.81745 4.4806C4.8179 4.56919 4.782 4.65593 4.71911 4.71882Z" fill="#EAA28F"/>
<path d="M3.373 6.06537C3.35741 6.08096 3.34025 6.09488 3.32152 6.10733C3.3031 6.11941 3.28374 6.12983 3.26343 6.13815C3.2434 6.14673 3.22179 6.1531 3.20054 6.15719C3.17862 6.16195 3.1567 6.16415 3.13478 6.16389C3.1129 6.1642 3.09062 6.16159 3.0687 6.15751C3.04709 6.1531 3.02616 6.14672 3.00581 6.13846C2.9855 6.12956 2.96578 6.11941 2.94772 6.10706C2.92931 6.09497 2.91215 6.08096 2.8966 6.06542C2.88101 6.04983 2.86704 6.03267 2.85465 6.01394C2.84225 5.99583 2.83209 5.97611 2.82351 5.95617C2.81525 5.93582 2.80856 5.91452 2.80411 5.89292C2.80002 5.87099 2.79773 5.84907 2.79773 5.82688C2.79777 5.80527 2.79966 5.78304 2.80442 5.76111C2.80851 5.73982 2.8152 5.71857 2.82347 5.69822C2.83174 5.67792 2.8422 5.65851 2.85429 5.64014C2.87908 5.60326 2.91084 5.5715 2.94736 5.54706C2.96578 5.53498 2.98519 5.52451 3.00581 5.51593C3.02611 5.50771 3.04741 5.50102 3.0687 5.49688C3.09026 5.49244 3.11286 5.49023 3.13442 5.49023C3.15661 5.49023 3.17858 5.49248 3.20045 5.49657C3.22206 5.50102 3.24335 5.50771 3.26339 5.51629C3.28369 5.52455 3.30342 5.53471 3.32147 5.54711C3.34021 5.5595 3.35741 5.57347 3.37295 5.58906C3.3885 5.60461 3.40247 5.62181 3.41455 5.64023C3.42691 5.65833 3.43706 5.67801 3.44568 5.69863C3.45426 5.71866 3.46064 5.73964 3.46504 5.76125C3.46918 5.78317 3.47174 5.80541 3.47142 5.82733C3.47174 5.84925 3.46918 5.87149 3.46477 5.89305C3.46064 5.91434 3.45426 5.93595 3.44573 5.95594C3.43715 5.97656 3.42664 5.99597 3.4146 6.01438C3.40251 6.03267 3.38854 6.04983 3.373 6.06537Z" fill="#EAA28F"/>
<path d="M20.1035 17.4109C20.0879 17.4265 20.0708 17.4404 20.052 17.4528C20.0342 17.4649 20.0142 17.4754 19.9942 17.4839C19.9739 17.4922 19.9526 17.4988 19.9313 17.503C19.9094 17.5071 19.8871 17.5097 19.8652 17.5093C19.8433 17.5097 19.8214 17.5075 19.7991 17.503C19.7778 17.4988 19.7565 17.4922 19.7362 17.4839C19.7162 17.4753 19.6965 17.4652 19.6784 17.4528C19.6597 17.4404 19.6425 17.4265 19.6269 17.4109C19.5644 17.3483 19.5282 17.2613 19.5285 17.1727C19.5281 17.1507 19.5307 17.1285 19.5348 17.1066C19.5393 17.0856 19.5456 17.064 19.5542 17.044C19.5625 17.0236 19.5729 17.0037 19.585 16.9859C19.6095 16.9487 19.6412 16.917 19.6784 16.8925C19.6962 16.8804 19.7162 16.8699 19.7365 16.8617C19.7565 16.8531 19.7781 16.8468 19.7991 16.8423C19.821 16.8382 19.8432 16.8356 19.8652 16.836C19.9538 16.8356 20.0408 16.8719 20.1034 16.9344C20.1663 16.9973 20.2022 17.084 20.2019 17.1727C20.2022 17.1946 20.1997 17.2168 20.1955 17.2387C20.1913 17.26 20.1847 17.2813 20.1764 17.3016C20.1678 17.3217 20.1573 17.3417 20.1453 17.3594C20.133 17.3782 20.119 17.3953 20.1035 17.4109Z" fill="#EAA28F"/>
<path d="M18.7572 18.757C18.7417 18.7726 18.7245 18.7866 18.7058 18.799C18.688 18.811 18.668 18.8215 18.6479 18.8301C18.6276 18.8383 18.6063 18.845 18.5851 18.8492C18.5631 18.8533 18.5409 18.8558 18.519 18.8555C18.4971 18.8559 18.4748 18.8533 18.4529 18.8492C18.4316 18.845 18.4103 18.8384 18.39 18.8301C18.37 18.8215 18.3503 18.8113 18.3322 18.799C18.3135 18.7866 18.2963 18.7726 18.2808 18.757C18.2652 18.7415 18.2512 18.7243 18.2391 18.7059C18.2268 18.6878 18.2166 18.6681 18.2077 18.6478C18.1994 18.6274 18.1928 18.6061 18.1886 18.5849C18.1845 18.563 18.182 18.5407 18.1823 18.5188C18.1819 18.4969 18.1845 18.4747 18.1889 18.4531C18.1931 18.4318 18.1994 18.4102 18.208 18.3902C18.2162 18.3698 18.227 18.3501 18.2388 18.332C18.3007 18.239 18.4084 18.1821 18.5189 18.1821C18.6079 18.1821 18.6946 18.218 18.7571 18.2806C18.7727 18.2962 18.7867 18.3133 18.7991 18.3321C18.8115 18.3502 18.8216 18.3699 18.8302 18.3899C18.8385 18.4102 18.8451 18.4315 18.8489 18.4531C18.8534 18.4747 18.8559 18.4969 18.8556 18.5188C18.8559 18.5407 18.8533 18.563 18.8492 18.5849C18.8451 18.6062 18.8384 18.6275 18.8301 18.6478C18.8216 18.6678 18.8111 18.6879 18.799 18.7056C18.7868 18.7244 18.7728 18.7415 18.7572 18.757Z" fill="#EAA28F"/>
<path d="M17.411 20.1031C17.3954 20.1187 17.3783 20.1327 17.3598 20.1454C17.3414 20.1574 17.322 20.1679 17.3017 20.1762C17.2814 20.1844 17.26 20.1911 17.2388 20.1953C17.2165 20.1997 17.1946 20.2019 17.1727 20.2016C17.0841 20.202 16.9974 20.1661 16.9345 20.1032C16.9189 20.0876 16.905 20.0705 16.8928 20.0521C16.8805 20.0339 16.8703 20.0142 16.8614 19.9939C16.8531 19.9736 16.8465 19.9523 16.8423 19.931C16.8382 19.9091 16.8357 19.8869 16.836 19.865C16.8357 19.843 16.8379 19.8212 16.8427 19.7992C16.8467 19.7779 16.8531 19.7563 16.8617 19.7363C16.87 19.716 16.8804 19.6966 16.8925 19.6783C16.917 19.6411 16.9488 19.6093 16.9856 19.5852C17.004 19.5731 17.0234 19.5626 17.044 19.554C17.064 19.5455 17.0856 19.5391 17.1069 19.535C17.1285 19.5306 17.1507 19.528 17.1727 19.5284C17.2612 19.528 17.3483 19.5642 17.4109 19.6268C17.4738 19.6897 17.5097 19.7765 17.5093 19.865C17.5097 19.887 17.5071 19.9092 17.503 19.9311C17.4988 19.9524 17.4922 19.9737 17.4839 19.994C17.4753 20.0147 17.4648 20.0341 17.4528 20.0525C17.4405 20.0704 17.4265 20.0876 17.411 20.1031Z" fill="#EAA28F"/>
<path d="M18.3389 16.9928C18.3233 17.0083 18.3062 17.0223 18.2877 17.0344C18.2693 17.0464 18.2496 17.0573 18.2293 17.0655C18.2093 17.0741 18.1877 17.0804 18.1664 17.0845C18.1444 17.0893 18.1226 17.0915 18.1006 17.0912C18.0787 17.0915 18.0565 17.089 18.0346 17.0848C18.013 17.0804 17.992 17.0741 17.9717 17.0658C17.9514 17.0569 17.9316 17.0467 17.9135 17.0343C17.8952 17.0223 17.878 17.0083 17.8624 16.9928C17.8468 16.9772 17.8329 16.96 17.8205 16.9413C17.8081 16.9232 17.7979 16.9034 17.7893 16.8835C17.7811 16.8632 17.7744 16.8419 17.7699 16.8203C17.7658 16.7984 17.7635 16.7764 17.7635 16.7542C17.7635 16.7326 17.7658 16.7107 17.7702 16.6884C17.7743 16.6672 17.781 16.6459 17.7892 16.6256C17.7978 16.6056 17.8083 16.5855 17.8207 16.5674C17.8448 16.5306 17.8766 16.4988 17.9138 16.4744C17.9316 16.4623 17.9515 16.4518 17.9715 16.4432C17.9919 16.435 18.0132 16.4283 18.0344 16.4242C18.0564 16.42 18.0786 16.4175 18.1002 16.4175C18.1224 16.4175 18.1444 16.4197 18.1662 16.4239C18.1878 16.4283 18.2091 16.435 18.2291 16.4436C18.2494 16.4518 18.2692 16.462 18.2872 16.4744C18.306 16.4867 18.3231 16.5008 18.3387 16.5163C18.3543 16.5319 18.3682 16.5491 18.3803 16.5674C18.3927 16.5855 18.4029 16.6053 18.4115 16.6259C18.42 16.6459 18.4264 16.6668 18.4308 16.6885C18.435 16.7104 18.4375 16.7327 18.4372 16.7546C18.4375 16.7765 18.435 16.7987 18.4305 16.8203C18.4264 16.8416 18.42 16.8632 18.4115 16.8832C18.4032 16.9035 18.3924 16.9232 18.3806 16.9413C18.3684 16.96 18.3545 16.9772 18.3389 16.9928Z" fill="#EAA28F"/>
<path d="M16.9926 18.3387C16.977 18.3543 16.9599 18.3682 16.9412 18.3806C16.923 18.3923 16.9033 18.4032 16.883 18.4114C16.863 18.42 16.8414 18.4264 16.8201 18.4305C16.7982 18.4352 16.7763 18.4375 16.7544 18.4371C16.7325 18.4374 16.7103 18.4349 16.6883 18.4308C16.667 18.4266 16.6457 18.42 16.6254 18.4117C16.6051 18.4028 16.5854 18.3926 16.5673 18.3802C16.5488 18.3682 16.5317 18.3542 16.5161 18.3386C16.5006 18.3231 16.4866 18.3059 16.4742 18.2871C16.4618 18.269 16.4516 18.2493 16.4431 18.2294C16.4348 18.2091 16.4281 18.1877 16.4237 18.1662C16.4196 18.1442 16.4173 18.1223 16.4176 18.1004C16.4173 18.0785 16.4195 18.0566 16.424 18.0344C16.4281 18.0131 16.4348 17.9918 16.4431 17.9715C16.4516 17.9515 16.4618 17.9318 16.4742 17.9137C16.4986 17.8765 16.5304 17.8447 16.5673 17.8206C16.5854 17.8082 16.6054 17.7977 16.6254 17.7891C16.6457 17.7809 16.667 17.7742 16.6883 17.7701C16.7102 17.7659 16.7324 17.7634 16.7543 17.7637C16.7762 17.7633 16.7982 17.7656 16.8201 17.7697C16.8417 17.7742 16.863 17.7809 16.8833 17.7891C16.9033 17.7977 16.923 17.8079 16.9411 17.8203C16.9598 17.8327 16.977 17.8467 16.9925 17.8622C17.0552 17.9248 17.0913 18.0118 17.091 18.1005C17.0913 18.1224 17.0888 18.1446 17.0844 18.1662C17.0802 18.1875 17.0739 18.2091 17.0653 18.2291C17.057 18.2494 17.0462 18.2691 17.0342 18.2875C17.0221 18.3059 17.0082 18.3231 16.9926 18.3387Z" fill="#EAA28F"/>
<path d="M17.9204 15.2281C17.9048 15.2436 17.8877 15.2576 17.8689 15.27C17.8508 15.2817 17.8311 15.2925 17.8108 15.3008C17.7904 15.3091 17.7692 15.3157 17.7479 15.3198C17.7263 15.3243 17.7037 15.3265 17.6821 15.3265C17.6599 15.3265 17.638 15.3242 17.6161 15.3201C17.5945 15.3157 17.5735 15.3093 17.5529 15.3007C17.5329 15.2922 17.5131 15.282 17.4951 15.2696C17.4766 15.2575 17.4591 15.2432 17.4436 15.2277C17.4283 15.2124 17.414 15.195 17.402 15.1765C17.3896 15.1584 17.3794 15.1388 17.3709 15.1187C17.3623 15.0981 17.356 15.0771 17.3515 15.0555C17.3473 15.0336 17.3451 15.0117 17.3451 14.9894C17.3451 14.9678 17.3473 14.9453 17.3517 14.9237C17.3559 14.9024 17.3625 14.8812 17.3708 14.8608C17.3791 14.8405 17.3899 14.8208 17.4016 14.8027C17.4264 14.7659 17.4582 14.7341 17.495 14.7093C17.5131 14.6976 17.5328 14.6868 17.5531 14.6785C17.5734 14.6703 17.5947 14.6636 17.616 14.6595C17.6376 14.655 17.6601 14.6528 17.6817 14.6528C17.704 14.6528 17.7259 14.6551 17.7478 14.6592C17.7694 14.6637 17.7904 14.67 17.811 14.6786C17.8311 14.6872 17.8507 14.6973 17.8688 14.7097C17.8873 14.7218 17.9047 14.7361 17.92 14.7513C17.9355 14.7669 17.9498 14.7844 17.9619 14.8028C17.9743 14.8209 17.9845 14.8406 17.993 14.8606C18.0016 14.8812 18.008 14.9022 18.0125 14.9238C18.0165 14.9457 18.0188 14.9676 18.0188 14.9899C18.0188 15.0115 18.0166 15.034 18.0121 15.0556C18.008 15.0769 18.0014 15.0981 17.9931 15.1185C17.9848 15.1388 17.974 15.1586 17.9623 15.1766C17.9499 15.1954 17.936 15.2125 17.9204 15.2281Z" fill="#EAA28F"/>
<path d="M16.574 16.5739C16.5584 16.5895 16.5415 16.6038 16.5228 16.6162C16.5047 16.6279 16.485 16.6387 16.4647 16.647C16.4443 16.6552 16.4231 16.6619 16.4018 16.666C16.3802 16.6705 16.3579 16.673 16.3361 16.6727C16.3138 16.6727 16.2919 16.6704 16.27 16.6663C16.2484 16.6619 16.2274 16.6555 16.2067 16.6469C16.1868 16.6384 16.1671 16.6282 16.149 16.6158C16.1306 16.6037 16.1131 16.5894 16.0979 16.5742C16.0823 16.5586 16.068 16.5411 16.0559 16.5227C16.0435 16.5046 16.0333 16.4849 16.0248 16.4649C16.0165 16.4446 16.0099 16.4233 16.0054 16.4017C16.0013 16.3798 15.999 16.3579 15.999 16.3356C15.999 16.314 16.0013 16.2915 16.0057 16.2699C16.0099 16.2486 16.0165 16.2274 16.0247 16.207C16.033 16.1867 16.0438 16.167 16.0555 16.1489C16.0803 16.112 16.1121 16.0803 16.1489 16.0555C16.167 16.0438 16.1867 16.033 16.207 16.0247C16.2273 16.0165 16.2487 16.0099 16.2699 16.0057C16.2915 16.0013 16.3141 15.999 16.3356 15.999C16.4246 15.999 16.5113 16.0349 16.5742 16.0978C16.5894 16.113 16.6037 16.1305 16.6158 16.149C16.6282 16.1671 16.6383 16.1868 16.6469 16.2067C16.6555 16.2274 16.6619 16.2484 16.666 16.2703C16.6705 16.2919 16.6727 16.3138 16.6727 16.336C16.6728 16.4243 16.6366 16.5114 16.574 16.5739Z" fill="#EAA28F"/>
<path d="M15.2281 17.9204C15.2125 17.936 15.1954 17.95 15.1766 17.9624C15.1582 17.9745 15.1388 17.9849 15.1185 17.9932C15.0981 18.0015 15.0768 18.0082 15.0556 18.0123C15.0337 18.017 15.0118 18.0192 14.9898 18.019C14.9676 18.019 14.9457 18.0167 14.9238 18.0126C14.9022 18.0081 14.8812 18.0017 14.8606 17.9932C14.8406 17.9846 14.8208 17.9744 14.8028 17.962C14.7844 17.95 14.7669 17.9356 14.7517 17.9204C14.7361 17.9048 14.7218 17.8874 14.7097 17.869C14.6973 17.8509 14.6872 17.8311 14.6786 17.8111C14.67 17.7905 14.6637 17.7695 14.6592 17.7479C14.6551 17.726 14.6528 17.7041 14.6528 17.6819C14.6529 17.6603 14.6548 17.638 14.6595 17.6161C14.6637 17.5948 14.6703 17.5736 14.6786 17.5532C14.6868 17.5329 14.6973 17.5135 14.7094 17.4951C14.7342 17.4583 14.7659 17.4265 14.8025 17.402C14.8209 17.39 14.8403 17.3795 14.8609 17.3709C14.8812 17.3627 14.9026 17.356 14.9238 17.3519C14.9454 17.3475 14.968 17.3452 14.9895 17.3452C15.0118 17.3453 15.0337 17.3475 15.0556 17.3516C15.0772 17.356 15.0981 17.3624 15.1185 17.3713C15.1388 17.3795 15.1585 17.3897 15.1766 17.4021C15.195 17.4142 15.2125 17.4284 15.2281 17.444C15.2907 17.5066 15.3265 17.5933 15.3266 17.6822C15.3269 17.7041 15.3243 17.7264 15.3199 17.7479C15.3158 17.7692 15.3091 17.7905 15.3009 17.8108C15.2923 17.8314 15.2818 17.8509 15.2697 17.8693C15.2576 17.8878 15.2436 17.9049 15.2281 17.9204Z" fill="#EAA28F"/>
<path d="M21.48 1.51998C20.4999 0.539826 19.1966 0 17.8105 0C16.4243 0 15.1211 0.539826 14.1409 1.51998L1.51998 14.1409C0.539826 15.1211 0 16.4243 0 17.8105C0 19.1966 0.539826 20.4999 1.51998 21.4801C2.50013 22.4602 3.80336 23 5.18951 23C6.57566 23 7.87889 22.4602 8.85909 21.48L21.48 8.85909C22.4602 7.87894 23 6.57571 23 5.18951C23 3.80336 22.4602 2.50013 21.48 1.51998Z" fill="#FFD2C0"/>
<path d="M22.9999 5.1896C22.9999 3.80344 22.4601 2.50021 21.4799 1.52002C22.1809 2.22098 22.4582 3.26169 22.2607 4.45036C22.0633 5.63909 21.4147 6.83356 20.4346 7.81375L7.81363 20.4347C6.83348 21.4149 5.63896 22.0635 4.45024 22.2609C3.26152 22.4583 2.22081 22.1811 1.5199 21.4801C2.50005 22.4603 3.80328 23.0001 5.18943 23.0001C6.57558 23.0001 7.87881 22.4603 8.85896 21.4801L21.4799 8.85918C22.4601 7.87903 22.9999 6.5758 22.9999 5.1896Z" fill="#F0B7A6"/>
<path d="M11.3085 8.05319L8.0531 11.3086C7.75167 11.61 7.75167 12.0987 8.0531 12.4001L10.6 14.9469C10.9014 15.2484 11.3901 15.2484 11.6915 14.9469L14.9469 11.6915C15.2483 11.3901 15.2483 10.9015 14.9469 10.6L12.4001 8.05314C12.0986 7.75181 11.6099 7.75181 11.3085 8.05319Z" fill="#EAA28F"/>
<path d="M14.9902 5.6549C14.9682 5.6549 14.9457 5.65266 14.9241 5.64816C14.9026 5.64367 14.8814 5.63743 14.8612 5.62885C14.8406 5.62076 14.8213 5.60998 14.8028 5.59785C14.7844 5.58572 14.7673 5.57184 14.7516 5.55607C14.7363 5.5408 14.722 5.52333 14.7098 5.50486C14.6977 5.48645 14.6874 5.46713 14.6788 5.44691C14.6703 5.42625 14.664 5.40509 14.6595 5.38357C14.6555 5.36201 14.6532 5.34 14.6532 5.31799C14.6532 5.29598 14.6555 5.27397 14.6595 5.25195C14.664 5.23039 14.6703 5.20928 14.6788 5.18906C14.6874 5.16885 14.6977 5.14908 14.7098 5.13066C14.722 5.11225 14.7363 5.09518 14.7516 5.07941C14.8302 5.00129 14.9461 4.96535 15.0557 4.98732C15.0773 4.99186 15.0984 4.9981 15.1191 5.00668C15.1393 5.01517 15.1586 5.02555 15.177 5.03763C15.1955 5.04981 15.2125 5.06414 15.2283 5.07941C15.244 5.09518 15.2579 5.1122 15.2701 5.13066C15.2822 5.14908 15.2925 5.16885 15.3011 5.18906C15.3096 5.20928 15.3159 5.23039 15.3204 5.25195C15.3249 5.27392 15.3271 5.29593 15.3271 5.31799C15.3271 5.40648 15.2912 5.49318 15.2283 5.55607C15.2126 5.57184 15.1955 5.58572 15.1771 5.59785C15.1587 5.61003 15.1393 5.62081 15.1191 5.62885C15.0985 5.63738 15.0774 5.64367 15.0558 5.64816C15.0342 5.65266 15.0117 5.6549 14.9902 5.6549Z" fill="#EAA28F"/>
<path d="M16.3361 7.00107C16.3145 7.00107 16.292 6.99883 16.2705 6.99438C16.2489 6.98984 16.2278 6.9836 16.2072 6.97502C16.187 6.96653 16.1676 6.95615 16.1492 6.94407C16.1308 6.93194 16.1137 6.91756 16.098 6.90224C16.0823 6.88652 16.0683 6.86949 16.0562 6.85103C16.0441 6.83261 16.0337 6.8133 16.0252 6.79308C16.0167 6.77242 16.0104 6.75131 16.0059 6.72974C16.0014 6.70818 15.9991 6.68572 15.9991 6.66416C15.9991 6.57526 16.0351 6.48851 16.098 6.42562C16.1137 6.4099 16.1308 6.39597 16.1492 6.3838C16.1676 6.37167 16.187 6.36134 16.2072 6.35285C16.2278 6.34431 16.249 6.33802 16.2705 6.33353C16.3797 6.31152 16.4964 6.34746 16.5746 6.42562C16.5899 6.44134 16.6042 6.45841 16.6164 6.47683C16.6285 6.49525 16.6388 6.51457 16.6474 6.53523C16.6559 6.55545 16.6622 6.57656 16.6667 6.59812C16.6712 6.61968 16.673 6.64215 16.673 6.66416C16.673 6.68617 16.6712 6.70818 16.6667 6.72974C16.6622 6.75131 16.6559 6.77242 16.6474 6.79308C16.6388 6.8133 16.6285 6.83261 16.6164 6.85103C16.6042 6.86945 16.5899 6.88652 16.5746 6.90224C16.5118 6.96513 16.425 7.00107 16.3361 7.00107Z" fill="#EAA28F"/>
<path d="M17.6822 8.34691C17.6602 8.34691 17.6382 8.34467 17.6166 8.34062C17.5951 8.33609 17.574 8.32984 17.5533 8.32131C17.5331 8.31277 17.5133 8.30239 17.4953 8.29031C17.4769 8.27818 17.4594 8.26381 17.4441 8.24853C17.4284 8.23276 17.4145 8.21574 17.4023 8.19728C17.3902 8.17886 17.3794 8.15909 17.3713 8.13888C17.3628 8.11866 17.356 8.09755 17.352 8.07603C17.3475 8.05447 17.3452 8.03201 17.3452 8.00995C17.3452 7.98839 17.3475 7.96593 17.352 7.94437C17.356 7.92285 17.3627 7.90169 17.3713 7.88103C17.3794 7.86086 17.3902 7.84149 17.4023 7.82308C17.4144 7.8047 17.4284 7.78759 17.4441 7.77187C17.4594 7.75614 17.4769 7.74222 17.4953 7.73009C17.5133 7.71796 17.5331 7.70713 17.5533 7.69909C17.574 7.6906 17.5951 7.68427 17.6166 7.67977C17.6598 7.67119 17.7047 7.67119 17.7483 7.67977C17.7698 7.68427 17.7909 7.69056 17.8111 7.69909C17.8313 7.70718 17.8511 7.71796 17.8695 7.73009C17.888 7.74222 17.905 7.75614 17.9208 7.77187C17.936 7.78759 17.9504 7.80466 17.9625 7.82308C17.9747 7.84149 17.985 7.86086 17.9935 7.88103C18.0016 7.90169 18.0084 7.92285 18.0128 7.94437C18.0169 7.96593 18.0192 7.98839 18.0192 8.00995C18.0192 8.03196 18.0169 8.05442 18.0128 8.07603C18.0084 8.09755 18.0016 8.11866 17.9935 8.13888C17.985 8.15909 17.9747 8.17886 17.9625 8.19728C17.9504 8.21569 17.936 8.23276 17.9208 8.24853C17.905 8.26381 17.888 8.27769 17.8695 8.29031C17.8511 8.30244 17.8313 8.31277 17.8111 8.32131C17.7909 8.3298 17.7698 8.33609 17.7483 8.34062C17.7262 8.34467 17.7042 8.34691 17.6822 8.34691Z" fill="#EAA28F"/>
<path d="M16.7546 5.23644C16.6657 5.23644 16.5789 5.2001 16.5165 5.13766C16.5008 5.12189 16.4869 5.10486 16.4743 5.0864C16.4622 5.06798 16.4518 5.04867 16.4433 5.028C16.4352 5.00779 16.4285 4.98667 16.4245 4.96516C16.42 4.94359 16.4177 4.92113 16.4177 4.89908C16.4177 4.87756 16.42 4.8551 16.4245 4.83349C16.4285 4.81197 16.4352 4.79082 16.4433 4.77065C16.4518 4.74998 16.4622 4.73062 16.4743 4.7122C16.4869 4.69383 16.5008 4.67671 16.5165 4.66099C16.5318 4.64572 16.5489 4.63134 16.5677 4.61921C16.5857 4.60704 16.6055 4.59675 16.6257 4.58822C16.6459 4.57973 16.667 4.57339 16.6886 4.5689C16.7321 4.56037 16.7771 4.56037 16.8202 4.5689C16.8417 4.57339 16.8633 4.57968 16.8835 4.58822C16.9037 4.59675 16.9235 4.60709 16.9415 4.61921C16.9599 4.63134 16.9774 4.64572 16.9927 4.66099C17.0556 4.72388 17.0915 4.81058 17.0915 4.89908C17.0915 4.92109 17.0893 4.94355 17.0848 4.96516C17.0807 4.98672 17.074 5.00779 17.0659 5.028C17.0574 5.04867 17.047 5.06798 17.0349 5.0864C17.0224 5.10482 17.0084 5.12189 16.9927 5.13766C16.9774 5.15293 16.96 5.16731 16.9415 5.17943C16.9235 5.19156 16.9038 5.2019 16.8836 5.21043C16.8629 5.21897 16.8418 5.22521 16.8202 5.22975C16.7986 5.23424 16.7766 5.23644 16.7546 5.23644Z" fill="#EAA28F"/>
<path d="M18.1011 6.58261C18.0791 6.58261 18.0566 6.58032 18.035 6.57587C18.0135 6.57183 17.9924 6.56509 17.9721 6.55701C17.9515 6.54843 17.9322 6.53814 17.9137 6.52597C17.8953 6.51343 17.8783 6.49946 17.8625 6.48378C17.8001 6.4213 17.7642 6.33464 17.7642 6.2457C17.7642 6.22369 17.766 6.20167 17.7705 6.17962C17.775 6.1585 17.7812 6.13694 17.7898 6.11677C17.7983 6.09656 17.8087 6.07675 17.8208 6.05882C17.8329 6.0404 17.8473 6.02284 17.8626 6.00757C17.8783 5.99184 17.8953 5.97792 17.9138 5.96534C17.9322 5.95321 17.9515 5.94288 17.9722 5.93475C17.9924 5.92626 18.0136 5.91947 18.0351 5.91543C18.0787 5.90645 18.1231 5.90645 18.1667 5.91543C18.1883 5.91947 18.2094 5.92621 18.2296 5.93475C18.2503 5.94288 18.2696 5.95316 18.288 5.96534C18.3064 5.97787 18.3235 5.99184 18.3392 6.00757C18.3545 6.02284 18.3689 6.04036 18.381 6.05882C18.3932 6.07675 18.4035 6.09656 18.412 6.11677C18.4206 6.13694 18.4268 6.15855 18.4314 6.17962C18.4354 6.20163 18.4377 6.22364 18.4377 6.2457C18.4377 6.26766 18.4354 6.28968 18.4314 6.31173C18.4268 6.3333 18.4206 6.35441 18.412 6.37458C18.4035 6.39479 18.3932 6.4146 18.381 6.43253C18.3689 6.4514 18.3545 6.46851 18.3392 6.48378C18.3235 6.49951 18.3065 6.51343 18.288 6.52597C18.2696 6.5381 18.2503 6.54843 18.2296 6.55701C18.2094 6.56509 18.1883 6.57183 18.1667 6.57587C18.1451 6.58037 18.1226 6.58261 18.1011 6.58261Z" fill="#EAA28F"/>
<path d="M17.1729 3.47172C17.1508 3.47172 17.1288 3.46943 17.1072 3.46539C17.0857 3.4609 17.0646 3.45461 17.0439 3.44607C17.0237 3.43754 17.0044 3.42721 16.986 3.41508C16.9676 3.40254 16.95 3.38857 16.9347 3.3729C16.8719 3.31041 16.8359 3.22376 16.8359 3.13481C16.8359 3.04627 16.8719 2.95961 16.9347 2.89668C16.95 2.88096 16.9675 2.86703 16.986 2.8549C17.0044 2.84232 17.0237 2.83199 17.0439 2.82391C17.0646 2.81537 17.0857 2.80863 17.1072 2.80459C17.1504 2.79561 17.1953 2.79561 17.2389 2.80459C17.2604 2.80863 17.2816 2.81537 17.3017 2.82391C17.3224 2.83204 17.3418 2.84232 17.3602 2.8549C17.3785 2.86703 17.3957 2.88096 17.4114 2.89668C17.4738 2.95957 17.5098 3.04627 17.5098 3.13481C17.5098 3.22376 17.4738 3.31041 17.4114 3.3729C17.3485 3.43574 17.2618 3.47172 17.1729 3.47172Z" fill="#EAA28F"/>
<path d="M18.5191 4.81826C18.4971 4.81826 18.4751 4.81601 18.4531 4.81152C18.4319 4.80747 18.4104 4.80074 18.3902 4.79265C18.37 4.78412 18.3502 4.77378 18.3322 4.76165C18.3134 4.74908 18.2963 4.73511 18.281 4.71943C18.2653 4.70415 18.2514 4.68664 18.2388 4.66822C18.2267 4.65025 18.2163 4.63044 18.2078 4.61027C18.1997 4.59005 18.193 4.56845 18.1889 4.54738C18.1845 4.52537 18.1823 4.50335 18.1823 4.48134C18.1823 4.45933 18.1845 4.43732 18.1889 4.41531C18.193 4.39415 18.1997 4.37263 18.2078 4.35242C18.2163 4.3322 18.2267 4.31244 18.2388 4.29447C18.2514 4.27605 18.2653 4.25853 18.281 4.24326C18.2963 4.22749 18.3134 4.21361 18.3322 4.20103C18.3502 4.1889 18.37 4.17857 18.3902 4.16999C18.4104 4.1619 18.432 4.15521 18.4531 4.15112C18.5626 4.12866 18.679 4.16464 18.7572 4.24326C18.7729 4.25853 18.7869 4.276 18.799 4.29447C18.8116 4.31244 18.8219 4.3322 18.8304 4.35242C18.8385 4.37263 18.8453 4.39419 18.8493 4.41531C18.8538 4.43727 18.856 4.45933 18.856 4.48134C18.856 4.50335 18.8538 4.52532 18.8493 4.54738C18.8453 4.56849 18.8385 4.59005 18.8304 4.61027C18.8219 4.63044 18.8116 4.65025 18.799 4.66822C18.7869 4.68659 18.7729 4.70415 18.7572 4.71943C18.6948 4.78232 18.608 4.81826 18.5191 4.81826Z" fill="#EAA28F"/>
<path d="M19.8655 6.16419C19.8435 6.16419 19.821 6.16194 19.7994 6.15745C19.7779 6.15296 19.7568 6.14671 19.7366 6.13813C19.7163 6.12964 19.6966 6.11926 19.6782 6.10718C19.6597 6.09505 19.6427 6.08113 19.6269 6.06536C19.5645 6.00292 19.5286 5.91577 19.5286 5.82727C19.5286 5.80526 19.5308 5.7828 19.5353 5.76124C19.5393 5.73967 19.546 5.71856 19.5542 5.69835C19.5627 5.67813 19.573 5.65837 19.5851 5.63995C19.5977 5.62153 19.6116 5.60446 19.6269 5.58874C19.6427 5.57342 19.6597 5.55909 19.6782 5.54691C19.6966 5.53479 19.7163 5.52445 19.7366 5.51596C19.7568 5.50743 19.7779 5.50114 19.7994 5.4966C19.843 5.48811 19.8875 5.48811 19.9311 5.4966C19.9526 5.50114 19.9737 5.50738 19.9944 5.51596C20.0146 5.52445 20.0344 5.53483 20.0524 5.54691C20.0708 5.55909 20.0883 5.57342 20.1036 5.58874C20.1193 5.60446 20.1332 5.62148 20.1454 5.63995C20.1575 5.65837 20.1683 5.67813 20.1764 5.69835C20.1849 5.71856 20.1912 5.73967 20.1957 5.76124C20.2002 5.7828 20.2024 5.80526 20.2024 5.82727C20.2024 5.84928 20.2002 5.8713 20.1957 5.89286C20.1912 5.91442 20.185 5.93553 20.1764 5.9562C20.1683 5.97641 20.1575 5.99573 20.1454 6.01415C20.1332 6.03257 20.1193 6.04964 20.1036 6.06536C20.0883 6.08113 20.0708 6.09501 20.0524 6.10718C20.0344 6.11931 20.0146 6.12964 19.9944 6.13813C19.9737 6.14667 19.9526 6.15296 19.9311 6.15745C19.9095 6.16194 19.8875 6.16419 19.8655 6.16419Z" fill="#EAA28F"/>
<path d="M3.13477 17.5099C3.04622 17.5099 2.95912 17.474 2.89663 17.4116C2.88091 17.3958 2.86699 17.3788 2.85486 17.3604C2.84228 17.3419 2.83195 17.3221 2.82386 17.3019C2.81533 17.2817 2.80859 17.2606 2.80455 17.2391C2.80005 17.2175 2.79785 17.195 2.79785 17.173C2.79785 17.151 2.8001 17.129 2.80455 17.1074C2.80859 17.0859 2.81533 17.0648 2.82386 17.0441C2.83199 17.0239 2.84228 17.0046 2.85486 16.9862C2.86699 16.9677 2.88091 16.9507 2.89663 16.9349C2.91191 16.9192 2.92943 16.9052 2.94789 16.8931C2.96581 16.881 2.98563 16.8702 3.00584 16.8621C3.0265 16.8536 3.04762 16.8473 3.06913 16.8428C3.17834 16.8208 3.29469 16.8568 3.3733 16.9349C3.38857 16.9507 3.4025 16.9677 3.41508 16.9862C3.42725 17.0046 3.43754 17.0239 3.44607 17.0441C3.45456 17.0648 3.4609 17.0859 3.46494 17.1074C3.46943 17.129 3.47168 17.151 3.47168 17.173C3.47168 17.195 3.46939 17.2175 3.46494 17.2391C3.4609 17.2606 3.45461 17.2817 3.44607 17.3019C3.43754 17.3221 3.42721 17.3419 3.41508 17.3604C3.40255 17.3787 3.38857 17.3958 3.3733 17.4116C3.31037 17.474 3.22371 17.5099 3.13477 17.5099Z" fill="#EAA28F"/>
<path d="M4.48096 18.8559C4.45895 18.8559 4.43693 18.8537 4.41492 18.8492C4.39376 18.8451 4.37225 18.8384 4.35203 18.8303C4.33182 18.8218 4.31205 18.8115 4.29408 18.7989C4.27566 18.7867 4.25814 18.7728 4.24287 18.7571C4.17998 18.6947 4.14404 18.608 4.14404 18.519C4.14404 18.497 4.14629 18.475 4.15074 18.453C4.15482 18.4318 4.16152 18.4103 4.1696 18.3901C4.17814 18.3699 4.18852 18.3501 4.2006 18.3321C4.21318 18.3137 4.2271 18.2962 4.24283 18.2809C4.2581 18.2652 4.27557 18.2513 4.29404 18.2387C4.31201 18.2266 4.33177 18.2162 4.35199 18.2077C4.3722 18.1996 4.39376 18.1929 4.41488 18.1888C4.45845 18.1799 4.50337 18.1799 4.5469 18.1888C4.56802 18.1929 4.58958 18.1996 4.60979 18.2077C4.62996 18.2162 4.64977 18.2266 4.66774 18.2387C4.68612 18.2513 4.70368 18.2652 4.71895 18.2809C4.73468 18.2962 4.7486 18.3137 4.76122 18.3321C4.77335 18.3501 4.78369 18.3699 4.79218 18.3901C4.80026 18.4103 4.807 18.4319 4.81104 18.453C4.81558 18.4749 4.81778 18.497 4.81778 18.519C4.81778 18.6079 4.78184 18.6947 4.71895 18.7571C4.6566 18.82 4.56945 18.8559 4.48096 18.8559Z" fill="#EAA28F"/>
<path d="M5.82735 20.2023C5.73845 20.2023 5.6517 20.1663 5.58886 20.1034C5.52637 20.041 5.49048 19.9538 5.49048 19.8654C5.49048 19.8433 5.49272 19.8214 5.49677 19.7993C5.5013 19.7778 5.50755 19.7566 5.51613 19.7364C5.52462 19.7162 5.535 19.6964 5.54708 19.678C5.55925 19.6596 5.57358 19.6425 5.5889 19.6268C5.66702 19.5487 5.78341 19.5127 5.89302 19.5347C5.91459 19.5392 5.9357 19.5455 5.95636 19.554C5.97658 19.5625 5.9959 19.5729 6.01431 19.585C6.03273 19.5972 6.0498 19.6115 6.06552 19.6268C6.08125 19.6425 6.09517 19.6596 6.10735 19.678C6.11948 19.6964 6.12981 19.7162 6.1383 19.7364C6.14683 19.7566 6.15312 19.7778 6.15761 19.7993C6.16215 19.8213 6.16435 19.8433 6.16435 19.8654C6.16435 19.9538 6.12842 20.041 6.06552 20.1034C6.0498 20.1192 6.03273 20.1331 6.01431 20.1453C5.9959 20.1578 5.97658 20.1682 5.95636 20.1763C5.9357 20.1848 5.91459 20.1915 5.89302 20.1956C5.87137 20.2 5.84936 20.2023 5.82735 20.2023Z" fill="#EAA28F"/>
<path d="M4.89941 17.0915C4.8779 17.0915 4.85544 17.0892 4.83383 17.0847C4.81231 17.0802 4.79115 17.074 4.77049 17.0654C4.75032 17.0573 4.73096 17.0465 4.71254 17.0344C4.69417 17.0222 4.67705 17.0084 4.66133 16.9926C4.64561 16.9773 4.63168 16.9598 4.61955 16.9414C4.60738 16.9234 4.59709 16.9036 4.58855 16.8834C4.58006 16.8628 4.57373 16.8417 4.56924 16.8205C4.5647 16.7986 4.5625 16.7765 4.5625 16.7545C4.5625 16.7325 4.56475 16.7105 4.56924 16.6885C4.57373 16.6669 4.58002 16.6458 4.58855 16.6256C4.59709 16.6054 4.60742 16.5856 4.61955 16.5676C4.63168 16.5488 4.64561 16.5317 4.66133 16.516C4.67705 16.5007 4.69412 16.4868 4.71254 16.4742C4.73096 16.4621 4.75032 16.4517 4.77049 16.4432C4.79115 16.4351 4.81231 16.4284 4.83383 16.4239C4.87695 16.4153 4.92187 16.4153 4.96549 16.4239C4.98706 16.4284 5.00812 16.4351 5.02834 16.4432C5.049 16.4517 5.06832 16.4621 5.08674 16.4742C5.10516 16.4868 5.12223 16.5007 5.13799 16.516C5.15327 16.5317 5.16764 16.5488 5.17977 16.5676C5.1919 16.5856 5.20223 16.6054 5.21081 16.6256C5.2193 16.6458 5.22559 16.6669 5.23013 16.6885C5.23462 16.7105 5.23682 16.7324 5.23682 16.7545C5.23682 16.7765 5.23458 16.7985 5.23013 16.8205C5.22559 16.8417 5.21935 16.8628 5.21081 16.8834C5.20223 16.9036 5.1919 16.9234 5.17977 16.9414C5.16764 16.9598 5.15327 16.9773 5.13799 16.9926C5.12223 17.0084 5.1052 17.0222 5.08674 17.0344C5.06832 17.0465 5.049 17.0573 5.02834 17.0654C5.00812 17.0739 4.98701 17.0802 4.96549 17.0847C4.94389 17.0892 4.92143 17.0915 4.89941 17.0915Z" fill="#EAA28F"/>
<path d="M6.24561 18.4381C6.15706 18.4381 6.06996 18.4022 6.00747 18.3393C5.99175 18.3236 5.97783 18.3065 5.96529 18.2881C5.95316 18.2696 5.94283 18.2503 5.9347 18.2297C5.92621 18.2094 5.91943 18.1883 5.91538 18.1668C5.91089 18.1452 5.90869 18.1227 5.90869 18.1012C5.90869 18.0792 5.91094 18.0568 5.91538 18.0352C5.91943 18.0136 5.92617 17.9925 5.9347 17.9723C5.94283 17.9516 5.95312 17.9323 5.96529 17.9139C5.97783 17.8954 5.9918 17.8784 6.00747 17.8627C6.02275 17.8474 6.04027 17.833 6.05873 17.8209C6.0767 17.8087 6.09647 17.7984 6.11668 17.7899C6.13685 17.7813 6.15846 17.7751 6.17953 17.7706C6.22314 17.762 6.26807 17.762 6.3116 17.7706C6.33316 17.7751 6.35427 17.7813 6.37444 17.7899C6.39466 17.7984 6.41447 17.8087 6.43239 17.8209C6.45126 17.833 6.46837 17.8474 6.48365 17.8627C6.54649 17.9255 6.58248 18.0122 6.58248 18.1012C6.58248 18.1227 6.58018 18.1452 6.57574 18.1668C6.57169 18.1883 6.56496 18.2094 6.55687 18.2297C6.54833 18.2503 6.538 18.2696 6.52587 18.2881C6.51334 18.3065 6.49937 18.3235 6.48365 18.3393C6.46837 18.3546 6.45126 18.3689 6.43239 18.3811C6.41447 18.3932 6.39466 18.4036 6.37444 18.4121C6.35427 18.4206 6.33311 18.4269 6.3116 18.4315C6.28963 18.4359 6.26762 18.4381 6.24561 18.4381Z" fill="#EAA28F"/>
<path d="M5.31792 15.3268C5.2959 15.3268 5.27389 15.3246 5.25188 15.3201C5.23032 15.3156 5.20921 15.3093 5.18899 15.3007C5.16878 15.2922 5.14901 15.2819 5.13059 15.2697C5.11217 15.2576 5.0951 15.2437 5.07934 15.228C5.06406 15.2122 5.04973 15.1952 5.03756 15.1767C5.02543 15.1583 5.0151 15.139 5.00661 15.1188C4.99848 15.0981 4.99178 15.077 4.98725 15.0554C4.9832 15.0339 4.98096 15.0119 4.98096 14.9898C4.98096 14.9009 5.01689 14.8142 5.07929 14.7513C5.09506 14.736 5.11208 14.7217 5.13055 14.7095C5.14896 14.6974 5.16873 14.6871 5.18895 14.6785C5.20916 14.67 5.23027 14.6637 5.25184 14.6592C5.3614 14.6372 5.47775 14.6731 5.55596 14.7513C5.61885 14.8142 5.65479 14.9009 5.65479 14.9898C5.65479 15.0119 5.65254 15.0339 5.64805 15.0554C5.64355 15.077 5.63731 15.0981 5.62873 15.1188C5.6202 15.139 5.60986 15.1583 5.59773 15.1767C5.58561 15.1951 5.57172 15.2122 5.55596 15.228C5.54068 15.2437 5.52321 15.2576 5.50475 15.2697C5.48678 15.2819 5.46701 15.2922 5.4468 15.3007C5.42613 15.3093 5.40497 15.3156 5.38346 15.3201C5.36189 15.3246 5.33993 15.3268 5.31792 15.3268Z" fill="#EAA28F"/>
<path d="M6.66423 16.673C6.64222 16.673 6.61976 16.6712 6.59819 16.6667C6.57663 16.6622 6.55552 16.656 6.5353 16.6474C6.51464 16.6389 6.49532 16.6286 6.47691 16.6164C6.45849 16.6043 6.44142 16.5899 6.42569 16.5746C6.36321 16.5118 6.32727 16.4251 6.32727 16.3361C6.32727 16.3145 6.32952 16.292 6.3336 16.2705C6.3381 16.2489 6.34434 16.2279 6.35292 16.2072C6.36141 16.187 6.37179 16.1676 6.38387 16.1492C6.396 16.1308 6.40993 16.1138 6.42569 16.098C6.44142 16.0823 6.45849 16.0683 6.47691 16.0562C6.49532 16.0441 6.51464 16.0337 6.5353 16.0252C6.55552 16.0167 6.57663 16.0104 6.59819 16.0059C6.70736 15.9839 6.8237 16.0198 6.90232 16.098C6.91763 16.1138 6.93196 16.1308 6.94414 16.1492C6.95627 16.1676 6.9666 16.187 6.97513 16.2072C6.98367 16.2279 6.98996 16.249 6.9945 16.2705C6.99899 16.292 7.00119 16.3145 7.00119 16.3361C7.00119 16.425 6.96525 16.5117 6.90236 16.5746C6.88664 16.5899 6.86961 16.6043 6.85115 16.6164C6.83273 16.6286 6.81342 16.6389 6.79275 16.6474C6.77254 16.6559 6.75142 16.6622 6.72986 16.6667C6.70825 16.6712 6.68579 16.673 6.66423 16.673Z" fill="#EAA28F"/>
<path d="M8.01025 18.0192C7.98824 18.0192 7.96623 18.0169 7.94467 18.0128C7.92315 18.0084 7.90199 18.0021 7.88133 17.9935C7.86116 17.985 7.8418 17.9747 7.82338 17.9625C7.80501 17.9504 7.78789 17.936 7.77217 17.9208C7.75689 17.905 7.74252 17.888 7.73039 17.8695C7.71826 17.8511 7.70793 17.8314 7.69939 17.8111C7.6909 17.7909 7.68457 17.7698 7.68008 17.7483C7.67554 17.7262 7.67334 17.7042 7.67334 17.6822C7.67334 17.6602 7.67559 17.6382 7.68008 17.6166C7.68457 17.5951 7.69086 17.5735 7.69939 17.5533C7.70793 17.5331 7.71826 17.5133 7.73039 17.4953C7.74252 17.4769 7.75689 17.4594 7.77217 17.4441C7.78789 17.4284 7.80496 17.4145 7.82338 17.4023C7.8418 17.3902 7.86116 17.3794 7.88133 17.3713C7.90199 17.3628 7.92315 17.356 7.94467 17.352C7.98779 17.343 8.03271 17.343 8.07633 17.352C8.09785 17.356 8.11896 17.3627 8.13918 17.3713C8.15939 17.3794 8.17916 17.3902 8.19758 17.4023C8.216 17.4144 8.23307 17.4284 8.24883 17.4441C8.26411 17.4594 8.27848 17.4769 8.29061 17.4953C8.30274 17.5133 8.31307 17.5331 8.32161 17.5533C8.3301 17.5735 8.33639 17.5951 8.34092 17.6166C8.34497 17.6382 8.34721 17.6602 8.34721 17.6822C8.34721 17.7042 8.34497 17.7262 8.34092 17.7483C8.33639 17.7698 8.33014 17.7909 8.32161 17.8111C8.31307 17.8313 8.30269 17.8511 8.29061 17.8695C8.27848 17.888 8.26411 17.905 8.24883 17.9208C8.23311 17.936 8.21604 17.9504 8.19758 17.9625C8.17916 17.9747 8.15939 17.985 8.13918 17.9935C8.11896 18.0021 8.09785 18.0084 8.07633 18.0128C8.05428 18.0169 8.03227 18.0192 8.01025 18.0192Z" fill="#EAA28F"/>
</svg>
