<svg width="56" height="34" viewBox="0 0 56 34" fill="none" xmlns="http://www.w3.org/2000/svg">
<path d="M23.4056 8.372L27.782 25.8769L27.4511 27.6505L23.4727 28.6451C22.5938 28.8648 21.7032 28.3305 21.4835 27.4516L17.107 9.94672C16.8873 9.06782 17.4216 8.17724 18.3005 7.9575L22.2789 6.96286L23.4056 8.372Z" fill="#FAF5DC"/>
<path d="M24.2683 8.15628L28.6448 25.6612C28.8645 26.5401 28.3302 27.4307 27.4513 27.6504L22.2791 6.96278C23.1579 6.74307 24.0486 7.27738 24.2683 8.15628Z" fill="#F5EBCD"/>
<path d="M52.7138 10.3437C52.8237 10.7835 52.5564 11.2284 52.117 11.3383L29.0424 17.1072C28.603 17.2171 28.1577 16.9503 28.0478 16.5105C27.9378 16.0707 28.2051 15.6257 28.6445 15.5159L51.7192 9.74691C52.1586 9.63706 52.6038 9.90387 52.7138 10.3437Z" fill="#ECEAEC"/>
<path d="M8.26782 22.3013L28.779 17.1732L29.6391 16.1128C29.4194 15.2339 28.5288 14.6995 27.6499 14.9193L21.0436 16.5709L20.3316 17.4342L19.0935 17.0585L8.55375 19.6935L8.26782 22.3013Z" fill="#F5EBCD"/>
<path d="M8.55359 19.6936L6.16656 20.2904L6.96228 23.4731L28.4456 18.102C29.3245 17.8823 29.8588 16.9917 29.6391 16.1128L22.42 17.9177C22.0277 18.0158 21.6173 17.8145 21.4697 17.438C21.3505 17.1341 21.2064 16.8454 21.0436 16.571L18.8975 17.1075L19.2954 18.6989L10.5428 20.8871C9.66391 21.1069 8.77333 20.5725 8.55359 19.6936Z" fill="#F4DBB3"/>
<path d="M15.1181 15.5162C15.9719 15.3027 16.8301 15.3739 17.5927 15.6698C18.7924 16.1351 19.2369 17.2861 19.5728 18.6295C20.1221 20.8267 19.1789 22.4209 16.9817 22.9702C15.6386 23.306 14.4102 23.4401 13.435 22.6009C12.8148 22.0672 12.3479 21.3433 12.1343 20.4892C11.585 18.292 12.9209 16.0655 15.1181 15.5162Z" fill="#B3E59F"/>
<path d="M6.1668 20.2904L6.76359 22.6774C6.87344 23.1168 6.60624 23.5622 6.16684 23.6721L3.77981 24.2688C3.34041 24.3787 2.89506 24.1115 2.7852 23.6721L2.18841 21.2851C2.07856 20.8457 2.34576 20.4003 2.78516 20.2905L5.17219 19.6937C5.61159 19.5838 6.05694 19.851 6.1668 20.2904Z" fill="#FAF5DC"/>
<path d="M17.7041 19.0966C17.8141 19.5364 17.5468 19.9813 17.1074 20.0912L15.516 20.4891C15.0766 20.5989 14.6314 20.3321 14.5214 19.8923C14.4115 19.4525 14.6788 19.0076 15.1182 18.8977L16.7095 18.4998C17.1489 18.39 17.5942 18.6568 17.7041 19.0966Z" fill="#95D6A4"/>
<path d="M18.8892 17.7787C19.4385 19.9759 18.1027 22.2024 15.9054 22.7518C15.0527 22.965 14.1967 22.8957 13.4348 22.6008C14.4103 23.4416 15.763 23.8089 17.1072 23.4728C19.3044 22.9235 20.6403 20.697 20.091 18.4998C19.7549 17.1555 18.7917 16.1337 17.5909 15.6687C18.2097 16.2021 18.6759 16.9259 18.8892 17.7787Z" fill="#95D6A4"/>
<path d="M5.57022 21.2848C5.78995 22.1637 5.25562 23.0542 4.37672 23.274L2.78537 23.6718L2.9843 24.4675C3.09415 24.9069 3.53951 25.1741 3.9789 25.0643L7.16161 24.2685C7.60101 24.1587 7.86822 23.7133 7.75836 23.2739L6.96264 20.0912C6.85279 19.6518 6.40744 19.3846 5.96804 19.4945L5.17236 19.6934L5.57022 21.2848Z" fill="#F5EBCD"/>
</svg>
