<svg width="290" height="280" viewBox="0 0 290 280" fill="none" xmlns="http://www.w3.org/2000/svg">
<path d="M207.833 214.271C203.643 214.271 199.551 213.528 196.043 212.271C187.105 209.065 185.771 203.712 185.771 200.807C185.771 195.924 189.871 191.966 194.928 191.966C198.021 191.966 200.755 193.447 202.413 195.713C205.217 196.736 211.728 197.437 214.36 194.489C217.661 190.79 223.443 190.375 227.274 193.565C231.104 196.752 231.533 202.334 228.232 206.033C222.953 211.946 215.243 214.27 207.833 214.271ZM204.083 200.796C204.083 200.8 204.083 200.803 204.083 200.807C204.083 200.804 204.083 200.8 204.083 200.796Z" fill="#498A68"/>
<path d="M132.663 239.757C89.9329 239.757 40.7586 239.757 4.75897 217.566C-1.40126 213.768 2.16143 204.597 9.40577 205.531C37.9141 209.205 61.8601 202.198 75.515 190.849L132.663 239.757Z" fill="#5CB38E"/>
<path opacity="0.1" d="M59.3967 200.212C59.8731 213.387 61.9676 226.539 70.3793 237.475C91.2101 239.757 112.643 239.757 132.663 239.757L75.5149 190.849C71.1383 194.487 65.6997 197.675 59.3967 200.212Z" fill="black"/>
<path d="M113.533 280C113.17 280 112.805 279.987 112.437 279.96C104.68 279.383 98.8753 272.845 99.4723 265.355C100.014 258.558 99.4332 235.89 98.4233 230.869C96.105 224.13 99.5714 216.717 106.482 213.999C113.689 211.165 121.908 214.506 124.843 221.463C128.641 230.464 127.737 265.263 127.563 267.441C126.995 274.576 120.822 279.999 113.533 280ZM98.745 231.712C98.7473 231.718 98.7496 231.723 98.7518 231.728C98.7496 231.722 98.7473 231.717 98.745 231.712Z" fill="#498A68"/>
<path d="M164.622 280C164.259 280 163.894 279.987 163.527 279.96C155.77 279.383 149.965 272.845 150.561 265.355C151.103 258.558 150.522 235.89 149.512 230.869C147.194 224.13 150.66 216.717 157.57 213.999C164.777 211.165 172.996 214.506 175.931 221.463C179.73 230.464 178.826 265.263 178.652 267.441C178.084 274.576 171.911 279.999 164.622 280ZM149.834 231.713C149.836 231.718 149.839 231.722 149.841 231.728C149.838 231.722 149.836 231.717 149.834 231.713Z" fill="#498A68"/>
<path opacity="0.1" d="M178.87 254.837C178.859 243.276 178.342 227.176 175.931 221.463C172.996 214.506 164.777 211.165 157.57 214C150.66 216.718 147.194 224.131 149.512 230.87C150.322 234.895 150.855 250.264 150.756 259.702C161.631 259.012 170.95 257.407 178.87 254.837Z" fill="black"/>
<path opacity="0.1" d="M106.482 214C99.5714 216.718 96.105 224.131 98.4233 230.87C99.1291 234.379 99.6247 246.503 99.6745 255.81C107.667 258.041 116.983 259.38 127.755 259.875C127.885 248.571 127.631 228.069 124.843 221.463C121.908 214.506 113.689 211.165 106.482 214Z" fill="black"/>
<path d="M201.983 191.767C201.983 223.521 197.516 246.497 137.668 246.497C77.8197 246.497 73.353 223.521 73.353 191.767C73.353 160.014 102.148 134.273 137.668 134.273C173.188 134.274 201.983 160.015 201.983 191.767Z" fill="#5CB38E"/>
<path d="M201.983 191.768C201.983 191.514 201.976 191.263 201.972 191.011C188.576 187.692 162.005 186.726 143.515 205.699C130.041 219.524 128.091 234.444 129.536 246.343C132.127 246.445 134.835 246.497 137.668 246.497C197.515 246.497 201.983 223.521 201.983 191.768Z" fill="#9BDFC1"/>
<path opacity="0.05" d="M125.458 135.313C95.7776 140.413 73.3524 163.748 73.3524 191.768C73.3524 221.17 77.1898 243.043 125.27 246.122C98.5745 219.96 103.738 165.943 125.458 135.313Z" fill="black"/>
<path d="M196.702 51.4717C185.72 35.4363 167.137 25.791 147.226 25.791H122.75C87.9533 25.791 59.7451 53.027 59.7451 86.6243V114.593C59.7451 144.746 85.0623 169.19 116.292 169.19H246.036C269.432 169.19 288.397 150.879 288.397 128.291V109.255C288.397 86.6659 269.431 68.3543 246.036 68.3543H229.229C216.139 68.3548 203.922 62.0138 196.702 51.4717Z" fill="#5CB38E"/>
<g opacity="0.1">
<path opacity="0.1" d="M93.9674 132.073C96.362 132.073 98.3033 130.199 98.3033 127.887C98.3033 125.574 96.362 123.7 93.9674 123.7C91.5728 123.7 89.6316 125.574 89.6316 127.887C89.6316 130.199 91.5728 132.073 93.9674 132.073Z" fill="black"/>
<path opacity="0.1" d="M124.797 138.461C127.192 138.461 129.133 136.586 129.133 134.274C129.133 131.962 127.192 130.088 124.797 130.088C122.402 130.088 120.461 131.962 120.461 134.274C120.461 136.586 122.402 138.461 124.797 138.461Z" fill="black"/>
<path opacity="0.1" d="M107.159 152.739C109.554 152.739 111.495 150.865 111.495 148.553C111.495 146.241 109.554 144.367 107.159 144.367C104.764 144.367 102.823 146.241 102.823 148.553C102.823 150.865 104.764 152.739 107.159 152.739Z" fill="black"/>
</g>
<path d="M108.314 76.0477C114.351 76.0477 119.244 73.624 119.244 70.6342C119.244 67.6444 114.351 65.2207 108.314 65.2207C102.278 65.2207 97.385 67.6444 97.385 70.6342C97.385 73.624 102.278 76.0477 108.314 76.0477Z" fill="#FFA8CB"/>
<path d="M181.687 76.0477C187.723 76.0477 192.616 73.624 192.616 70.6342C192.616 67.6444 187.723 65.2207 181.687 65.2207C175.651 65.2207 170.757 67.6444 170.757 70.6342C170.757 73.624 175.651 76.0477 181.687 76.0477Z" fill="#FFA8CB"/>
<path d="M122.179 63.9998C119.833 63.9998 117.931 62.164 117.931 59.8983V54.6406C117.931 52.3749 119.833 50.5391 122.179 50.5391C124.525 50.5391 126.427 52.3749 126.427 54.6406V59.8983C126.427 62.164 124.525 63.9998 122.179 63.9998Z" fill="#495059"/>
<path d="M167.822 63.9998C165.476 63.9998 163.574 62.164 163.574 59.8983V54.6406C163.574 52.3749 165.476 50.5391 167.822 50.5391C170.168 50.5391 172.07 52.3749 172.07 54.6406V59.8983C172.07 62.164 170.168 63.9998 167.822 63.9998Z" fill="#495059"/>
<path d="M237.653 143.112C233.11 143.112 228.79 141.213 225.801 137.901C224.259 136.193 224.444 133.603 226.212 132.114C227.98 130.626 230.664 130.804 232.206 132.512C233.581 134.035 235.567 134.91 237.653 134.91C239.74 134.91 241.725 134.035 243.101 132.512C244.642 130.804 247.325 130.627 249.095 132.114C250.864 133.603 251.048 136.193 249.506 137.901C246.515 141.213 242.195 143.112 237.653 143.112Z" fill="#495059"/>
<path d="M223.839 93.9068C226.233 93.9068 228.174 92.0326 228.174 89.7205C228.174 87.4085 226.233 85.5342 223.839 85.5342C221.444 85.5342 219.503 87.4085 219.503 89.7205C219.503 92.0326 221.444 93.9068 223.839 93.9068Z" fill="#495059"/>
<path d="M251.468 93.9068C253.863 93.9068 255.804 92.0326 255.804 89.7205C255.804 87.4085 253.863 85.5342 251.468 85.5342C249.073 85.5342 247.132 87.4085 247.132 89.7205C247.132 92.0326 249.073 93.9068 251.468 93.9068Z" fill="#495059"/>
<path opacity="0.05" d="M108.753 27.2998C80.6937 33.4461 59.7451 57.6716 59.7451 86.6237V114.593C59.7451 144.746 85.0623 169.19 116.292 169.19H150.605C100.633 141.117 92.1628 63.9492 108.753 27.2998Z" fill="black"/>
<path d="M264.586 215.286C266.981 215.286 268.922 213.411 268.922 211.099C268.922 208.787 266.981 206.913 264.586 206.913C262.191 206.913 260.25 208.787 260.25 211.099C260.25 213.411 262.191 215.286 264.586 215.286Z" fill="#E5E5E5"/>
<path d="M136.839 206.482C133.192 206.482 129.744 204.364 128.322 200.891C126.462 196.35 128.766 191.214 133.469 189.418L133.735 189.316C135.988 188.46 141.971 186.186 146.688 181.63C150.263 178.176 156.06 178.175 159.637 181.626C163.214 185.077 163.216 190.675 159.641 194.128C152.228 201.29 143.357 204.661 140.442 205.769L140.204 205.86C139.099 206.282 137.959 206.482 136.839 206.482Z" fill="#498A68"/>
</svg>