<svg width="64" height="65" viewBox="0 0 64 65" fill="none" xmlns="http://www.w3.org/2000/svg">
<g clip-path="url(#clip0)">
<path d="M36.0671 5.96147C31.4015 7.33187 27.8673 11.2137 26.8238 16.1153C23.296 12.556 18.2241 11.2011 13.5582 12.5706C6.42204 14.666 2.65778 23.2487 4.83695 30.6704C10.3103 49.3111 38.3051 55.2175 38.3051 55.2175C38.3051 55.2175 58.6627 35.1137 53.1894 16.473C51.0102 9.05134 43.2033 3.86612 36.0671 5.96147Z" fill="#FF6243"/>
<path d="M8.1716 29.6913C6.15539 22.8246 9.23307 14.9755 15.3555 12.1786C14.7476 12.2664 14.1471 12.3972 13.5582 12.5706C6.42204 14.666 2.65778 23.2487 4.83695 30.6704C10.3103 49.3111 38.3051 55.2175 38.3051 55.2175C38.3051 55.2175 38.8313 54.6965 39.6863 53.7534C33.2435 52.0166 12.7682 45.3461 8.1716 29.6913Z" fill="#FF5023"/>
</g>
<defs>
<clipPath id="clip0">
<rect width="50.3937" height="52.4094" fill="white" transform="translate(0 14.1973) rotate(-16.3635)"/>
</clipPath>
</defs>
</svg>
