<svg width="129" height="129" viewBox="0 0 129 129" fill="none" xmlns="http://www.w3.org/2000/svg">
<path d="M110.751 110.747C107.215 110.747 103.773 111.89 100.94 114.006C99.3632 109.95 96.7123 106.399 93.2717 103.735C89.8311 101.07 85.7304 99.3921 81.409 98.8799C77.0875 98.3676 72.7081 99.0406 68.7399 100.827C64.7717 102.613 61.3642 105.445 58.8824 109.02C54.471 107.899 49.8213 108.168 45.5682 109.789C45.3902 106.614 43.9805 103.633 41.6388 101.481C39.2972 99.329 36.2084 98.1755 33.0294 98.2657C29.8504 98.3559 26.832 99.6827 24.6161 101.964C22.4002 104.245 21.1617 107.301 21.164 110.481C21.164 110.665 21.1832 110.843 21.1913 111.023C18.8155 110.582 16.3716 110.67 14.0339 111.282C11.6962 111.893 9.52209 113.013 7.66671 114.561C5.81132 116.109 4.3203 118.047 3.29995 120.238C2.27959 122.428 1.75503 124.817 1.76365 127.233H127.236C127.236 122.861 125.499 118.668 122.408 115.576C119.316 112.484 115.123 110.747 110.751 110.747Z" fill="#70EFEF"/>
<path d="M105.442 90.9551C109.826 90.9551 113.379 87.4018 113.379 83.0186C113.379 78.6353 109.826 75.082 105.442 75.082C101.059 75.082 97.5059 78.6353 97.5059 83.0186C97.5059 87.4018 101.059 90.9551 105.442 90.9551Z" fill="#C8FFFF"/>
<path d="M70.1129 55.2947C77.8621 47.5456 77.8621 34.9818 70.1129 27.2327C62.3638 19.4836 49.8 19.4836 42.0509 27.2327C34.3018 34.9818 34.3018 47.5456 42.0509 55.2947C49.8 63.0438 62.3638 63.0438 70.1129 55.2947Z" fill="#C8FFFF"/>
<path d="M67.8761 43.0255C67.4083 43.0255 66.9598 42.8397 66.629 42.509C66.2982 42.1782 66.1124 41.7296 66.1124 41.2619C66.1095 38.6054 65.0529 36.0585 63.1745 34.1801C61.2961 32.3017 58.7493 31.2451 56.0928 31.2422C55.625 31.2422 55.1764 31.0564 54.8457 30.7256C54.5149 30.3949 54.3291 29.9463 54.3291 29.4785C54.3291 29.0108 54.5149 28.5622 54.8457 28.2314C55.1764 27.9007 55.625 27.7148 56.0928 27.7148C59.6844 27.7188 63.1278 29.1474 65.6675 31.6871C68.2072 34.2268 69.6358 37.6702 69.6398 41.2619C69.6398 41.7296 69.454 42.1782 69.1232 42.509C68.7925 42.8397 68.3439 43.0255 67.8761 43.0255Z" fill="#70EFEF"/>
<path d="M80.4991 35.2734C78.7123 35.2738 76.9354 35.537 75.2252 36.0545C76.5295 40.7725 76.035 45.8068 73.8377 50.1808C71.6403 54.5549 67.8967 57.9569 63.333 59.727C64.4671 62.872 66.4428 65.6452 69.0448 67.7444C71.6468 69.8435 74.7751 71.188 78.0888 71.6313C81.4025 72.0746 84.7742 71.5996 87.8365 70.2582C90.8987 68.9168 93.5339 66.7603 95.4547 64.0241C97.3756 61.2878 98.5083 58.0767 98.7295 54.7408C98.9506 51.405 98.2517 48.0724 96.7088 45.1065C95.166 42.1406 92.8386 39.6552 89.9802 37.9213C87.1218 36.1874 83.8423 35.2715 80.4991 35.2734Z" fill="#70EFEF"/>
<path d="M20.4707 84.5302C26.4191 84.5302 31.2412 79.7081 31.2412 73.7598C31.2412 67.8114 26.4191 62.9893 20.4707 62.9893C14.5223 62.9893 9.7002 67.8114 9.7002 73.7598C9.7002 79.7081 14.5223 84.5302 20.4707 84.5302Z" fill="#70EFEF"/>
</svg>
