<svg width="88" height="88" viewBox="0 0 88 88" fill="none" xmlns="http://www.w3.org/2000/svg">
<g clip-path="url(#clip0)">
<path d="M78.4861 47.5142L54.3116 72.7953C50.5983 76.6785 44.44 76.8163 40.5568 73.103L25.7058 58.9021C21.8223 55.1885 21.6845 49.0301 25.3977 45.147L49.5722 19.8659C53.2854 15.9827 59.4438 15.8449 63.3273 19.5585L78.1783 33.7595C82.0615 37.4727 82.1993 43.6311 78.4861 47.5142Z" fill="#FFC7DE"/>
<path d="M25.3977 45.147C21.6845 49.0301 21.8223 55.1885 25.7058 58.9021L40.5568 73.103C44.44 76.8163 50.5983 76.6785 54.3116 72.7953L57.3107 69.6588C52.9338 66.6181 46.2704 60.8679 45.4074 53.5799C44.1081 42.6083 37.2616 37.7968 37.2616 37.7968L34.7661 35.3504L25.398 45.1473L25.3977 45.147Z" fill="#FFB0D0"/>
<path d="M66.1995 44.7237L50.974 60.6461C47.4793 64.3007 41.6301 64.4316 37.9754 60.9369C34.3211 57.4425 34.1899 51.593 37.6846 47.9383L52.91 32.0159C56.4047 28.3613 62.2543 28.2307 65.9086 31.7251C69.5633 35.2198 69.6942 41.069 66.1995 44.7237Z" fill="#FFB0D0"/>
<path d="M42.0385 43.3853L37.6848 47.9383C34.1901 51.593 34.321 57.4422 37.9757 60.9369C41.0526 63.8791 45.6832 64.2522 49.1566 62.1161C47.2538 59.6253 45.7827 56.7479 45.4076 53.5798C44.8946 49.2499 43.518 45.8793 42.0385 43.3853Z" fill="#FF97BD"/>
<path d="M34.2239 32.8887C31.5027 30.8839 27.906 30.9218 25.2629 32.723C24.2015 33.4461 22.9229 33.7682 21.6512 33.5881C17.3383 32.978 12.9284 35.1223 10.8544 39.2259C8.79382 43.3024 9.65546 48.0895 12.6555 51.2025C13.6134 52.1964 14.1614 53.5292 14.1277 54.9088C14.0505 58.0575 15.9502 61.0489 19.0667 62.2124C22.1686 63.3698 25.5473 62.3703 27.5552 59.9657C28.3957 58.9594 29.6079 58.3465 30.9113 58.2058C33.9625 57.8761 36.7441 55.9363 38.0038 52.9013C39.0463 50.3908 38.8217 47.6713 37.6252 45.4512C36.9148 44.1334 36.7285 42.5833 37.1156 41.1376C37.917 38.1457 36.8682 34.8364 34.2239 32.8887Z" fill="#CCF8FF"/>
<path d="M53.5528 28.1136C55.5809 30.0529 55.6529 33.2696 53.7132 35.2981C51.7739 37.3262 48.5572 37.3982 46.529 35.4588C44.5005 33.5191 44.4286 30.3024 46.3679 28.2743C48.3076 26.2458 51.5243 26.1739 53.5528 28.1136Z" fill="#CCF8FF"/>
<path d="M41.5098 66.904C43.1494 68.4718 43.2075 71.0715 41.6397 72.7111C40.0723 74.3503 37.4726 74.4085 35.833 72.8407C34.1938 71.2732 34.1356 68.6735 35.7031 67.0343C37.2709 65.3948 39.8706 65.3366 41.5098 66.904Z" fill="#ABEBF4"/>
<path d="M59.3527 40.3509C58.9952 40.7248 58.403 40.738 58.0291 40.3805L56.9061 39.3067C56.5322 38.9491 56.519 38.3569 56.8765 37.9831C57.234 37.6092 57.8262 37.5959 58.2001 37.9534L59.3231 39.0273C59.697 39.3848 59.7102 39.977 59.3527 40.3509Z" fill="#57565C"/>
<path d="M45.437 54.9036C45.0798 55.2772 44.4872 55.2908 44.1133 54.9333L42.9903 53.8594C42.6165 53.5019 42.6035 52.9093 42.9607 52.5358C43.3182 52.1619 43.9105 52.1487 44.2843 52.5062L45.4073 53.58C45.7812 53.9375 45.7945 54.5298 45.437 54.9036Z" fill="#57565C"/>
<path d="M53.1033 48.3041C52.2659 49.1798 51.1453 49.7847 49.8798 49.9734C49.3684 50.0501 48.8921 49.6969 48.8158 49.1857C48.739 48.6743 49.0923 48.1981 49.6034 48.1217C51.2889 47.8704 52.5885 46.5114 52.7641 44.8163C52.8176 44.3022 53.2775 43.9281 53.7919 43.9818C54.3063 44.0349 54.6801 44.4952 54.6267 45.0092C54.4948 46.2819 53.9406 47.4284 53.1033 48.3041Z" fill="#57565C"/>
<path d="M12.6558 51.2029C13.6137 52.1968 14.1617 53.5296 14.1279 54.9092C14.0508 58.0579 15.9505 61.0492 19.0669 62.2127C22.1689 63.3702 25.5476 62.3707 27.5555 59.9661C28.396 58.9598 29.6081 58.3468 30.9115 58.2062C33.9628 57.8765 36.7444 55.9366 38.0041 52.9017C38.8245 50.926 38.8605 48.8223 38.2552 46.9331C30.2661 45.3086 28.2837 51.025 21.9496 51.0556C14.216 51.093 10.8547 39.2263 10.8547 39.2263C8.7941 43.3028 9.65573 48.0899 12.6558 51.2029Z" fill="#ABEBF4"/>
</g>
<defs>
<clipPath id="clip0">
<rect width="62.0353" height="62.0353" fill="white" transform="translate(0 44.8359) rotate(-46.2817)"/>
</clipPath>
</defs>
</svg>