<?xml version="1.0" encoding="iso-8859-1"?>
<!-- Generator: Adobe Illustrator 19.0.0, SVG Export Plug-In . SVG Version: 6.00 Build 0)  -->
<svg version="1.1" id="Layer_1" xmlns="http://www.w3.org/2000/svg" xmlns:xlink="http://www.w3.org/1999/xlink" x="0px" y="0px"
	 viewBox="0 0 512 512" style="enable-background:new 0 0 512 512;" xml:space="preserve">
<path style="fill:#5C5F66;" d="M512,407c0,68.099-132.4,105-256,105S0,475.099,0,407c0-34.801,36.4-64.801,100.6-84.3h310.8
	C475.6,342.199,512,372.199,512,407z"/>
<path style="fill:#53565C;" d="M512,407c0,68.099-132.4,105-256,105V322.7h155.4C475.6,342.199,512,372.199,512,407z"/>
<path style="fill:#5C5F66;" d="M450.7,47.399c-15.601,94.2-24.901,190.701-28.2,284.301l-6.599,33.9H96.099L89.5,331.7
	c-3.3-93.6-12.599-189.5-27.9-281.901L256,48.6L450.7,47.399z"/>
<path style="fill:#53565C;" d="M450.7,47.399c-15.601,94.2-24.901,190.701-28.2,284.301l-6.599,33.9H256v-317L450.7,47.399z"/>
<path style="fill:#7F838C;" d="M256,0C183.1,0,61,5.7,61,45s122.1,45,195,45s195-5.7,195-45S328.9,0,256,0z"/>
<path style="fill:#757982;" d="M451,45c0,39.3-122.1,45-195,45V0C328.9,0,451,5.7,451,45z"/>
<path style="fill:#7F838C;" d="M422.5,331.7c0,4.2-1.5,67.8-1.5,75.3c0,41.7-126.301,45-165,45s-165-3.3-165-45
	c0-13.801-0.601-27.601-0.901-41.4c-0.298-11.1-0.298-22.5-0.599-33.9c8.099,17.999,135,30.3,166.5,30.3
	S414.401,349.699,422.5,331.7z"/>
<path style="fill:#757982;" d="M422.5,331.7c0,4.2-1.5,67.8-1.5,75.3c0,41.7-126.301,45-165,45v-90
	C287.5,362,414.401,349.699,422.5,331.7z"/>
<g>
</g>
<g>
</g>
<g>
</g>
<g>
</g>
<g>
</g>
<g>
</g>
<g>
</g>
<g>
</g>
<g>
</g>
<g>
</g>
<g>
</g>
<g>
</g>
<g>
</g>
<g>
</g>
<g>
</g>
</svg>
